<?xml version="1.0" standalone="no"?>
<!DOCTYPE svg PUBLIC "-//W3C//DTD SVG 20010904//EN"
 "http://www.w3.org/TR/2001/REC-SVG-20010904/DTD/svg10.dtd">
<svg version="1.0" xmlns="http://www.w3.org/2000/svg"
 width="233.000000pt" height="233.000000pt" viewBox="0 0 233.000000 233.000000"
 preserveAspectRatio="xMidYMid meet">
<metadata>
Created by potrace 1.11, written by Peter Selinger 2001-2013
</metadata>
<g transform="translate(0.000000,233.000000) scale(0.100000,-0.100000)"
fill="#000000" stroke="none">
<path d="M1080 2243 c-8 -3 -21 -7 -29 -9 -9 -3 -5 -11 14 -25 17 -14 25 -28
22 -40 -6 -22 25 -57 58 -65 14 -3 25 -8 25 -11 0 -16 -44 -44 -85 -53 -28 -6
-60 -17 -72 -25 -19 -13 -53 -67 -53 -86 0 -4 -16 -31 -36 -60 -20 -30 -51
-84 -70 -121 -39 -78 -94 -156 -110 -157 -5 -1 -28 -14 -50 -30 -21 -15 -50
-31 -64 -34 -64 -15 -235 -78 -274 -101 -64 -37 -114 -90 -138 -144 -22 -51
-31 -138 -18 -182 7 -24 3 -33 -27 -61 -19 -19 -46 -51 -60 -73 -50 -78 -54
-102 -66 -368 -1 -31 -10 -57 -26 -78 -17 -24 -22 -40 -17 -63 7 -35 32 -67
53 -67 7 0 38 -25 68 -55 43 -42 62 -55 86 -55 16 0 43 -10 59 -21 36 -27 96
-21 172 17 64 33 70 38 91 95 10 25 28 56 41 68 23 21 26 22 48 7 13 -9 40
-15 60 -14 27 1 46 -7 74 -30 21 -18 47 -32 56 -32 11 0 18 -8 18 -20 0 -12 9
-40 20 -62 22 -45 25 -68 11 -68 -5 0 -19 -13 -31 -30 l-21 -29 29 -15 c17 -9
43 -18 58 -21 16 -3 63 -14 104 -25 63 -16 102 -18 245 -16 166 3 198 6 280
28 22 5 47 11 55 13 30 6 125 38 133 45 5 4 1 22 -8 40 -10 20 -14 43 -11 59
4 14 9 39 12 56 3 16 12 42 20 57 8 15 14 37 14 49 0 42 23 97 45 109 18 10
27 9 46 -3 20 -12 70 -19 219 -30 14 -1 45 4 69 11 25 7 65 10 90 7 29 -4 55
-1 71 7 22 12 25 20 25 73 0 33 6 69 12 79 7 13 8 28 1 47 -6 18 -6 41 1 66
14 49 13 119 -3 162 -9 26 -27 42 -77 71 -58 33 -65 40 -73 78 -8 36 -6 45 11
60 55 48 52 104 -8 155 -30 26 -39 41 -39 65 0 17 -18 65 -41 107 -33 60 -49
80 -75 91 -36 15 -51 12 -104 -22 -19 -12 -54 -27 -76 -33 -23 -6 -47 -18 -54
-26 -7 -8 -17 -15 -22 -15 -7 0 -7 4 0 13 5 6 8 25 6 40 -2 20 6 38 29 64 40
46 43 99 8 137 -13 14 -28 24 -34 23 -5 -1 -10 26 -12 61 -2 60 -40 182 -57
182 -5 0 -8 6 -8 13 0 13 -30 47 -42 47 -3 0 -2 -18 2 -39 7 -38 6 -121 -2
-151 -10 -38 -41 -79 -60 -80 -14 0 -19 40 -7 61 6 12 12 45 14 74 1 29 9 63
18 76 10 13 17 36 17 51 0 17 8 33 20 40 32 20 23 35 -25 42 -50 8 -79 -3
-112 -42 l-22 -27 -43 41 c-24 23 -52 46 -63 52 -19 9 -65 8 -111 -3 -17 -4
-24 1 -30 23 -4 15 -7 30 -6 34 5 21 -109 35 -158 21z"/>
</g>
</svg>
